# xmcd
#
# Track frame offsets:
#      150
#      19205
#      38772
#      57805
#      76585
#      94695
#      110605
#      129910
#      147810
#      169435
# 
# Disc length: 2494 seconds
#
# Revision: 2
# Processed by: cddbd v1.4PL0 Copyright (c) Steve Scherf et al.
#
# Submitted via: FreeRIP 1.20
#
DISCID=7809bc0a
DTITLE=Reckless Faith - Rattle the Cage
DYEAR=1993
DGENRE=Christian Rock
TTITLE0=Lonely Season
TTITLE1=Love Drug
TTITLE2=100 Flowers
TTITLE3=Curse the Sun
TTITLE4=Compassion
TTITLE5=Unbroken
TTITLE6=Griefman
TTITLE7=House Standing Still
TTITLE8=The Hands of Cain
TTITLE9=Monkey on a String
EXTD=
EXTT0=
EXTT1=
EXTT2=
EXTT3=
EXTT4=
EXTT5=
EXTT6=
EXTT7=
EXTT8=
EXTT9=
PLAYORDER=
